{"title":"The Tall Man 2012 HDRip XviD HS","uid":7484299,"size":1055679382,"categoryP":"video","categoryS":"movies","magnet":"?xt=urn:btih:c9adaef789a9b2d68a09d10368956ca42af3a55d&amp;dn=The+Tall+Man+2012+HDRip+XviD+HS&amp;tr=udp%3A%2F%2Ftracker.openbittorrent.com%3A80&amp;tr=udp%3A%2F%2Fopen.demonii.com%3A1337&amp;tr=udp%3A%2F%2Ftracker.coppersurfer.tk%3A6969&amp;tr=udp%3A%2F%2Fexodus.desync.com%3A6969","seeders":4,"leechers":0,"uploader":"Hackulus","files":-1,"time":1343531471,"description":"The Tall Man.2012.HDRip.XviD.HS.avi\nFormat                                   : AVI\nFormat/Info                              : Audio Video Interleave\nFile size                                : 1 007 MiB\nDuration                                 : 1h 45mn\nOverall bit rate                         : 1 328 Kbps\nWriting application                      : Lavf52.103.0\n\nVideo\nID                                       : 1\nFormat                                   : MPEG-4 Visual\nFormat profile                           : Simple@L1\nFormat settings, BVOP                    : No\nFormat settings, QPel                    : No\nFormat settings, GMC                     : No warppoints\nFormat settings, Matrix                  : Default (H.263)\nCodec ID                                 : FMP4\nDuration                                 : 1h 45mn\nBit rate                                 : 1 187 Kbps\nWidth                                    : 640 pixels\nHeight                                   : 266 pixels\nDisplay aspect ratio                     : 2.40:1\nFrame rate                               : 23.976 fps\nColor space                              : YUV\nChroma subsampling                       : 4:2:0\nBit depth                                : 8 bits\nScan type                                : Progressive\nCompression mode                         : Lossy\nBits/(Pixel*Frame)                       : 0.291\nStream size                              : 900 MiB (89%)\nWriting library                          : Lavc52.116.0\n\nAudio\nID                                       : 0\nFormat                                   : MPEG Audio\nFormat version                           : Version 1\nFormat profile                           : Layer 3\nMode                                     : Joint stereo\nMode extension                           : MS Stereo\nCodec ID                                 : 55\nCodec ID/Hint                            : MP3\nDuration                                 : 1h 45mn\nBit rate mode                            : Constant\nBit rate                                 : 128 Kbps\nChannel(s)                               : 2 channels\nSampling rate                            : 48.0 KHz\nCompression mode                         : Lossy\nStream size                              : 97.0 MiB (10%)\nAlignment                                : Aligned on interleaves\nInterleave, duration                     : 42 ms (1.00 video frame)\nWriting library                          : LAME3.98.4\n","torrent":{"xt":"urn:btih:c9adaef789a9b2d68a09d10368956ca42af3a55d","amp;dn":"The+Tall+Man+2012+HDRip+XviD+HS","amp;tr":["udp%3A%2F%2Ftracker.openbittorrent.com%3A80","udp%3A%2F%2Fopen.demonii.com%3A1337","udp%3A%2F%2Ftracker.coppersurfer.tk%3A6969","udp%3A%2F%2Fexodus.desync.com%3A6969"],"infoHash":"c9adaef789a9b2d68a09d10368956ca42af3a55d","infoHashBuffer":{"type":"Buffer","data":[201,173,174,247,137,169,178,214,138,9,209,3,104,149,108,164,42,243,165,93]},"announce":[],"urlList":[]}}